<svg width="22" height="15" viewBox="0 0 22 15" fill="none" xmlns="http://www.w3.org/2000/svg">
<path d="M11.87 9.33721L9.33 7.54974L9.36 7.52837C11.1 6.14682 12.34 4.55875 13.07 2.8781H16V1.45382H9V0.029541H7V1.45382H0V2.87098H11.17C10.5 4.24541 9.44 5.54863 8 6.68805C7.07 5.95455 6.3 5.14983 5.69 4.30238H3.69C4.42 5.46317 5.42 6.55986 6.67 7.54974L1.58 11.1247L3 12.1359L8 8.57522L11.11 10.79L11.87 9.33721ZM17.5 5.72666H15.5L11 14.2723H13L14.12 12.1359H18.87L20 14.2723H22L17.5 5.72666ZM14.88 10.7116L16.5 7.62807L18.12 10.7116H14.88Z" fill="url(#paint0_linear_7_262)"/>
<defs>
<linearGradient id="paint0_linear_7_262" x1="11" y1="0.029541" x2="11" y2="14.2723" gradientUnits="userSpaceOnUse">
<stop stop-color="#62589F"/>
<stop offset="1" stop-color="#1E05B8"/>
</linearGradient>
</defs>
</svg>
