<svg width="202" height="38" viewBox="0 0 202 38" fill="none" xmlns="http://www.w3.org/2000/svg">
<path d="M0.119995 37V3.736H19.944L19.128 9.35199H7.992V18.184H17.688V23.8H7.992V37H0.119995Z" fill="black"/>
<path d="M43.9031 23.752C43.9031 24.808 43.8551 25.72 43.7591 26.488H27.9671C28.2231 28.632 28.8311 30.136 29.7911 31C30.7511 31.864 32.0791 32.296 33.7751 32.296C34.7991 32.296 35.7911 32.12 36.7511 31.768C37.7111 31.384 38.7511 30.808 39.8711 30.04L42.9911 34.264C40.0151 36.632 36.7031 37.816 33.0551 37.816C28.9271 37.816 25.7591 36.6 23.5511 34.168C21.3431 31.736 20.2391 28.472 20.2391 24.376C20.2391 21.784 20.7031 19.464 21.6311 17.416C22.5591 15.336 23.9191 13.704 25.7111 12.52C27.5031 11.304 29.6471 10.696 32.1431 10.696C35.8231 10.696 38.7031 11.848 40.7831 14.152C42.8631 16.456 43.9031 19.656 43.9031 23.752ZM36.4631 21.592C36.3991 17.688 35.0231 15.736 32.3351 15.736C31.0231 15.736 29.9991 16.216 29.2631 17.176C28.5591 18.136 28.1271 19.72 27.9671 21.928H36.4631V21.592Z" fill="black"/>
<path d="M61.9875 10.792C62.9155 10.792 63.7635 10.904 64.5315 11.128L63.3315 18.472C62.3715 18.248 61.6035 18.136 61.0275 18.136C59.5235 18.136 58.3715 18.664 57.5715 19.72C56.8035 20.744 56.1955 22.296 55.7475 24.376V37H48.1635V11.512H54.7875L55.4115 16.456C55.9875 14.696 56.8515 13.32 58.0035 12.328C59.1875 11.304 60.5155 10.792 61.9875 10.792Z" fill="black"/>
<path d="M82.3571 10.696C84.5651 10.696 86.2931 11.368 87.5411 12.712C88.7891 14.056 89.4131 15.944 89.4131 18.376V37H81.8291V19.672C81.8291 18.392 81.6211 17.512 81.2051 17.032C80.8211 16.52 80.2291 16.264 79.4291 16.264C77.8931 16.264 76.4211 17.368 75.0131 19.576V37H67.4291V11.512H74.0531L74.5811 14.536C75.6691 13.256 76.8371 12.296 78.0851 11.656C79.3651 11.016 80.7891 10.696 82.3571 10.696Z" fill="black"/>
<path d="M115.388 29.608C115.388 30.568 115.516 31.272 115.772 31.72C116.06 32.168 116.508 32.504 117.116 32.728L115.532 37.672C113.964 37.544 112.684 37.208 111.692 36.664C110.7 36.088 109.932 35.192 109.388 33.976C107.724 36.536 105.164 37.816 101.708 37.816C99.1802 37.816 97.1642 37.08 95.6602 35.608C94.1562 34.136 93.4042 32.216 93.4042 29.848C93.4042 27.064 94.4282 24.936 96.4762 23.464C98.5242 21.992 101.484 21.256 105.356 21.256H107.948V20.152C107.948 18.648 107.628 17.624 106.988 17.08C106.348 16.504 105.228 16.216 103.628 16.216C102.796 16.216 101.788 16.344 100.604 16.6C99.4202 16.824 98.2042 17.144 96.9562 17.56L95.2282 12.568C96.8282 11.96 98.4602 11.496 100.124 11.176C101.82 10.856 103.388 10.696 104.828 10.696C108.476 10.696 111.148 11.448 112.844 12.952C114.54 14.456 115.388 16.712 115.388 19.72V29.608ZM103.916 32.392C105.644 32.392 106.988 31.576 107.948 29.944V25.432H106.076C104.348 25.432 103.052 25.736 102.188 26.344C101.356 26.952 100.94 27.896 100.94 29.176C100.94 30.2 101.196 31 101.708 31.576C102.252 32.12 102.988 32.392 103.916 32.392Z" fill="black"/>
<path d="M136.357 10.696C138.565 10.696 140.293 11.368 141.541 12.712C142.789 14.056 143.413 15.944 143.413 18.376V37H135.829V19.672C135.829 18.392 135.621 17.512 135.205 17.032C134.821 16.52 134.229 16.264 133.429 16.264C131.893 16.264 130.421 17.368 129.013 19.576V37H121.429V11.512H128.053L128.581 14.536C129.669 13.256 130.837 12.296 132.085 11.656C133.365 11.016 134.789 10.696 136.357 10.696Z" fill="black"/>
<path d="M171.98 1.38399V37H165.26L164.876 34.024C163.084 36.552 160.668 37.816 157.628 37.816C154.46 37.816 152.044 36.6 150.38 34.168C148.748 31.736 147.932 28.408 147.932 24.184C147.932 21.592 148.364 19.272 149.228 17.224C150.092 15.176 151.308 13.576 152.876 12.424C154.476 11.272 156.3 10.696 158.348 10.696C160.78 10.696 162.796 11.496 164.396 13.096V0.567993L171.98 1.38399ZM159.98 32.248C161.74 32.248 163.212 31.288 164.396 29.368V18.376C163.788 17.64 163.164 17.096 162.524 16.744C161.916 16.392 161.212 16.216 160.412 16.216C159.004 16.216 157.884 16.872 157.052 18.184C156.22 19.496 155.804 21.512 155.804 24.232C155.804 27.208 156.156 29.288 156.86 30.472C157.596 31.656 158.636 32.248 159.98 32.248Z" fill="black"/>
<path d="M188.953 10.696C192.857 10.696 195.913 11.896 198.121 14.296C200.329 16.664 201.434 19.992 201.434 24.28C201.434 27 200.921 29.384 199.897 31.432C198.905 33.448 197.465 35.016 195.577 36.136C193.721 37.256 191.513 37.816 188.953 37.816C185.081 37.816 182.025 36.632 179.785 34.264C177.577 31.864 176.473 28.52 176.473 24.232C176.473 21.512 176.969 19.144 177.962 17.128C178.986 15.08 180.425 13.496 182.281 12.376C184.169 11.256 186.393 10.696 188.953 10.696ZM188.953 16.264C187.417 16.264 186.266 16.92 185.497 18.232C184.729 19.512 184.345 21.512 184.345 24.232C184.345 27.016 184.714 29.048 185.449 30.328C186.217 31.608 187.385 32.248 188.953 32.248C190.489 32.248 191.641 31.608 192.41 30.328C193.178 29.016 193.561 27 193.561 24.28C193.561 21.496 193.178 19.464 192.41 18.184C191.673 16.904 190.521 16.264 188.953 16.264Z" fill="black"/>
</svg>
