<svg width="460" height="308" viewBox="0 0 460 308" fill="none" xmlns="http://www.w3.org/2000/svg">
<g clip-path="url(#clip0_17_212)">
<path d="M267.949 54.2968C276.57 54.2968 283.559 47.8628 283.559 39.926C283.559 31.9892 276.57 25.5551 267.949 25.5551C259.328 25.5551 252.339 31.9892 252.339 39.926C252.339 47.8628 259.328 54.2968 267.949 54.2968Z" fill="#F2F2F2"/>
<path d="M389.042 267.577C412.245 251.307 423.327 223.967 416.389 197.887C416.216 197.239 416.034 196.592 415.843 195.947C411.243 180.466 399.864 165.753 383.279 160.806C369.353 156.653 354.153 159.847 339.625 158.195C311.106 154.953 288.995 133.709 273.438 111.467C257.881 89.225 245.924 64.3281 225.252 45.9529C191.177 15.6645 135.591 9.14332 93.3431 28.8588C51.0949 48.5744 24.1832 92.315 25.3309 135.908C26.4787 179.501 54.5896 221.179 95.4136 243.292C110.411 251.415 127.756 257.17 145.019 255.156C159.997 253.409 173.607 246 188.514 243.8C211.953 240.342 235.242 250.098 255.515 261.466C275.787 272.835 295.369 286.31 318.406 291.581C340.775 296.699 368.488 281.989 389.042 267.577Z" fill="#F2F2F2"/>
<path d="M355.705 29.7743C355.197 29.4621 354.682 29.1661 354.173 28.8647C339.471 20.2078 323.711 13.1751 307.222 7.91182L303.398 56.4699H279.159V0.823474C277.633 0.532836 276.096 0.258345 274.558 0V56.4699H245.753C229.896 56.4699 214.688 50.6707 203.475 40.348C192.262 30.0254 185.963 16.0248 185.963 1.42634V1.42629C184.42 1.73308 182.888 2.06139 181.356 2.41124V56.47H157.895L154.253 10.167C137.307 16.15 121.219 24.0179 106.348 33.5956C106.091 33.7571 105.834 33.924 105.582 34.0854C104.29 34.9197 103.016 35.7701 101.747 36.6312V221.881H170.891L169.669 206.299L162.946 120.749H298.341L291.618 206.299L290.396 221.881H358.774V31.6473C357.757 31.0122 356.734 30.3879 355.705 29.7743ZM181.356 106.621H161.835L158.228 60.7111H181.356V106.621ZM274.558 106.621H241.772V105.712C241.772 105.274 241.679 104.841 241.497 104.437C241.315 104.034 241.048 103.667 240.712 103.358C240.376 103.049 239.977 102.804 239.538 102.637C239.099 102.47 238.628 102.385 238.153 102.385H223.9C223.425 102.385 222.956 102.471 222.517 102.638C222.079 102.805 221.68 103.05 221.345 103.359C221.009 103.668 220.743 104.035 220.562 104.438C220.38 104.842 220.287 105.275 220.287 105.712V106.621H185.963V60.7111H274.558V106.621ZM279.159 106.621V60.7111H303.065L299.458 106.621H279.159Z" fill="#3F3D56"/>
<path d="M0 233.744C5.07885 239.284 10.5722 244.49 16.4399 249.325L443.56 249.863C449.428 245.028 454.921 239.822 460 234.282L0 233.744Z" fill="#3F3D56"/>
<path d="M289.644 183.851V229.978C289.645 230.566 289.899 231.13 290.35 231.546C290.802 231.961 291.414 232.195 292.052 232.195H366.303C366.942 232.195 367.554 231.961 368.005 231.546C368.457 231.13 368.711 230.566 368.711 229.978V183.851C368.71 183.264 368.455 182.701 368.004 182.286C367.553 181.871 366.941 181.637 366.303 181.636H292.052C291.414 181.637 290.803 181.871 290.351 182.286C289.9 182.701 289.646 183.264 289.644 183.851Z" fill="#3F3D56"/>
<path d="M291.386 184.425V229.409C291.387 229.723 291.522 230.025 291.764 230.247C292.005 230.469 292.332 230.594 292.673 230.594H365.685C366.026 230.594 366.353 230.469 366.594 230.247C366.836 230.025 366.971 229.723 366.972 229.409V184.425C366.972 184.11 366.837 183.809 366.595 183.586C366.354 183.364 366.027 183.238 365.685 183.238H292.673C292.331 183.238 292.004 183.364 291.763 183.586C291.522 183.809 291.386 184.11 291.386 184.425Z" fill="#3A2B97"/>
<path d="M288.091 238.975C288.227 239.132 288.4 239.258 288.597 239.345C288.794 239.432 289.009 239.476 289.227 239.475H368.733C368.95 239.475 369.165 239.43 369.361 239.344C369.557 239.257 369.73 239.132 369.867 238.977C370.004 238.821 370.102 238.64 370.153 238.445C370.204 238.25 370.207 238.048 370.163 237.852L368.929 232.455C368.877 232.235 368.767 232.03 368.608 231.859C368.449 231.688 368.246 231.557 368.018 231.477C367.852 231.417 367.676 231.386 367.498 231.387H290.457C290.279 231.386 290.103 231.417 289.938 231.477C289.709 231.557 289.506 231.688 289.347 231.859C289.188 232.03 289.078 232.235 289.027 232.455L287.792 237.852C287.749 238.048 287.753 238.25 287.804 238.444C287.856 238.638 287.954 238.82 288.091 238.975Z" fill="#2F2E41"/>
<path d="M364.77 233.711H366.648C366.806 233.711 366.934 233.593 366.934 233.448V232.621C366.934 232.476 366.806 232.358 366.648 232.358H364.77C364.613 232.358 364.485 232.476 364.485 232.621V233.448C364.485 233.593 364.613 233.711 364.77 233.711Z" fill="#3F3D56"/>
<path d="M359.873 233.711H361.751C361.909 233.711 362.036 233.593 362.036 233.448V232.621C362.036 232.476 361.909 232.358 361.751 232.358H359.873C359.715 232.358 359.588 232.476 359.588 232.621V233.448C359.588 233.593 359.715 233.711 359.873 233.711Z" fill="#3F3D56"/>
<path d="M354.976 233.711H356.853C357.011 233.711 357.139 233.593 357.139 233.448V232.621C357.139 232.476 357.011 232.358 356.853 232.358H354.976C354.818 232.358 354.69 232.476 354.69 232.621V233.448C354.69 233.593 354.818 233.711 354.976 233.711Z" fill="#3F3D56"/>
<path d="M350.078 233.711H351.956C352.114 233.711 352.241 233.593 352.241 233.448V232.621C352.241 232.476 352.114 232.358 351.956 232.358H350.078C349.921 232.358 349.793 232.476 349.793 232.621V233.448C349.793 233.593 349.921 233.711 350.078 233.711Z" fill="#3F3D56"/>
<path d="M345.181 233.711H347.059C347.216 233.711 347.344 233.593 347.344 233.448V232.621C347.344 232.476 347.216 232.358 347.059 232.358H345.181C345.023 232.358 344.895 232.476 344.895 232.621V233.448C344.895 233.593 345.023 233.711 345.181 233.711Z" fill="#3F3D56"/>
<path d="M340.283 233.711H342.161C342.319 233.711 342.447 233.593 342.447 233.448V232.621C342.447 232.476 342.319 232.358 342.161 232.358H340.283C340.126 232.358 339.998 232.476 339.998 232.621V233.448C339.998 233.593 340.126 233.711 340.283 233.711Z" fill="#3F3D56"/>
<path d="M335.386 233.711H337.264C337.421 233.711 337.549 233.593 337.549 233.448V232.621C337.549 232.476 337.421 232.358 337.264 232.358H335.386C335.228 232.358 335.1 232.476 335.1 232.621V233.448C335.1 233.593 335.228 233.711 335.386 233.711Z" fill="#3F3D56"/>
<path d="M330.488 233.711H332.366C332.524 233.711 332.652 233.593 332.652 233.448V232.621C332.652 232.476 332.524 232.358 332.366 232.358H330.488C330.331 232.358 330.203 232.476 330.203 232.621V233.448C330.203 233.593 330.331 233.711 330.488 233.711Z" fill="#3F3D56"/>
<path d="M325.591 233.711H327.469C327.626 233.711 327.754 233.593 327.754 233.448V232.621C327.754 232.476 327.626 232.358 327.469 232.358H325.591C325.433 232.358 325.305 232.476 325.305 232.621V233.448C325.305 233.593 325.433 233.711 325.591 233.711Z" fill="#3F3D56"/>
<path d="M320.693 233.711H322.571C322.729 233.711 322.857 233.593 322.857 233.448V232.621C322.857 232.476 322.729 232.358 322.571 232.358H320.693C320.536 232.358 320.408 232.476 320.408 232.621V233.448C320.408 233.593 320.536 233.711 320.693 233.711Z" fill="#3F3D56"/>
<path d="M315.796 233.711H317.674C317.832 233.711 317.959 233.593 317.959 233.448V232.621C317.959 232.476 317.832 232.358 317.674 232.358H315.796C315.638 232.358 315.511 232.476 315.511 232.621V233.448C315.511 233.593 315.638 233.711 315.796 233.711Z" fill="#3F3D56"/>
<path d="M310.899 233.711H312.776C312.934 233.711 313.062 233.593 313.062 233.448V232.621C313.062 232.476 312.934 232.358 312.776 232.358H310.899C310.741 232.358 310.613 232.476 310.613 232.621V233.448C310.613 233.593 310.741 233.711 310.899 233.711Z" fill="#3F3D56"/>
<path d="M306.001 233.711H307.879C308.037 233.711 308.164 233.593 308.164 233.448V232.621C308.164 232.476 308.037 232.358 307.879 232.358H306.001C305.843 232.358 305.716 232.476 305.716 232.621V233.448C305.716 233.593 305.843 233.711 306.001 233.711Z" fill="#3F3D56"/>
<path d="M301.104 233.711H302.982C303.139 233.711 303.267 233.593 303.267 233.448V232.621C303.267 232.476 303.139 232.358 302.982 232.358H301.104C300.946 232.358 300.818 232.476 300.818 232.621V233.448C300.818 233.593 300.946 233.711 301.104 233.711Z" fill="#3F3D56"/>
<path d="M296.206 233.711H298.084C298.242 233.711 298.37 233.593 298.37 233.448V232.621C298.37 232.476 298.242 232.358 298.084 232.358H296.206C296.049 232.358 295.921 232.476 295.921 232.621V233.448C295.921 233.593 296.049 233.711 296.206 233.711Z" fill="#3F3D56"/>
<path d="M291.309 233.711H293.187C293.344 233.711 293.472 233.593 293.472 233.448V232.621C293.472 232.476 293.344 232.358 293.187 232.358H291.309C291.151 232.358 291.023 232.476 291.023 232.621V233.448C291.023 233.593 291.151 233.711 291.309 233.711Z" fill="#3F3D56"/>
<path d="M364.828 235.965H366.706C366.864 235.965 366.992 235.848 366.992 235.703V234.876C366.992 234.73 366.864 234.613 366.706 234.613H364.828C364.671 234.613 364.543 234.73 364.543 234.876V235.703C364.543 235.848 364.671 235.965 364.828 235.965Z" fill="#3F3D56"/>
<path d="M359.931 235.965H361.809C361.966 235.965 362.094 235.848 362.094 235.703V234.876C362.094 234.73 361.966 234.613 361.809 234.613H359.931C359.773 234.613 359.646 234.73 359.646 234.876V235.703C359.646 235.848 359.773 235.965 359.931 235.965Z" fill="#3F3D56"/>
<path d="M355.033 235.965H356.911C357.069 235.965 357.197 235.848 357.197 235.703V234.876C357.197 234.73 357.069 234.613 356.911 234.613H355.033C354.876 234.613 354.748 234.73 354.748 234.876V235.703C354.748 235.848 354.876 235.965 355.033 235.965Z" fill="#3F3D56"/>
<path d="M350.136 235.965H352.014C352.172 235.965 352.299 235.848 352.299 235.703V234.876C352.299 234.73 352.172 234.613 352.014 234.613H350.136C349.978 234.613 349.851 234.73 349.851 234.876V235.703C349.851 235.848 349.978 235.965 350.136 235.965Z" fill="#3F3D56"/>
<path d="M345.239 235.965H347.116C347.274 235.965 347.402 235.848 347.402 235.703V234.876C347.402 234.73 347.274 234.613 347.116 234.613H345.239C345.081 234.613 344.953 234.73 344.953 234.876V235.703C344.953 235.848 345.081 235.965 345.239 235.965Z" fill="#3F3D56"/>
<path d="M340.341 235.965H342.219C342.377 235.965 342.504 235.848 342.504 235.703V234.876C342.504 234.73 342.377 234.613 342.219 234.613H340.341C340.183 234.613 340.056 234.73 340.056 234.876V235.703C340.056 235.848 340.183 235.965 340.341 235.965Z" fill="#3F3D56"/>
<path d="M335.444 235.965H337.322C337.479 235.965 337.607 235.848 337.607 235.703V234.876C337.607 234.73 337.479 234.613 337.322 234.613H335.444C335.286 234.613 335.158 234.73 335.158 234.876V235.703C335.158 235.848 335.286 235.965 335.444 235.965Z" fill="#3F3D56"/>
<path d="M330.546 235.965H332.424C332.582 235.965 332.71 235.848 332.71 235.703V234.876C332.71 234.73 332.582 234.613 332.424 234.613H330.546C330.389 234.613 330.261 234.73 330.261 234.876V235.703C330.261 235.848 330.389 235.965 330.546 235.965Z" fill="#3F3D56"/>
<path d="M325.649 235.965H327.527C327.684 235.965 327.812 235.848 327.812 235.703V234.876C327.812 234.73 327.684 234.613 327.527 234.613H325.649C325.491 234.613 325.363 234.73 325.363 234.876V235.703C325.363 235.848 325.491 235.965 325.649 235.965Z" fill="#3F3D56"/>
<path d="M320.751 235.965H322.629C322.787 235.965 322.915 235.848 322.915 235.703V234.876C322.915 234.73 322.787 234.613 322.629 234.613H320.751C320.594 234.613 320.466 234.73 320.466 234.876V235.703C320.466 235.848 320.594 235.965 320.751 235.965Z" fill="#3F3D56"/>
<path d="M315.854 235.965H317.732C317.889 235.965 318.017 235.848 318.017 235.703V234.876C318.017 234.73 317.889 234.613 317.732 234.613H315.854C315.696 234.613 315.568 234.73 315.568 234.876V235.703C315.568 235.848 315.696 235.965 315.854 235.965Z" fill="#3F3D56"/>
<path d="M310.956 235.965H312.834C312.992 235.965 313.12 235.848 313.12 235.703V234.876C313.12 234.73 312.992 234.613 312.834 234.613H310.956C310.799 234.613 310.671 234.73 310.671 234.876V235.703C310.671 235.848 310.799 235.965 310.956 235.965Z" fill="#3F3D56"/>
<path d="M306.059 235.965H307.937C308.094 235.965 308.222 235.848 308.222 235.703V234.876C308.222 234.73 308.094 234.613 307.937 234.613H306.059C305.901 234.613 305.774 234.73 305.774 234.876V235.703C305.774 235.848 305.901 235.965 306.059 235.965Z" fill="#3F3D56"/>
<path d="M301.162 235.965H303.039C303.197 235.965 303.325 235.848 303.325 235.703V234.876C303.325 234.73 303.197 234.613 303.039 234.613H301.162C301.004 234.613 300.876 234.73 300.876 234.876V235.703C300.876 235.848 301.004 235.965 301.162 235.965Z" fill="#3F3D56"/>
<path d="M296.264 235.965H298.142C298.3 235.965 298.427 235.848 298.427 235.703V234.876C298.427 234.73 298.3 234.613 298.142 234.613H296.264C296.106 234.613 295.979 234.73 295.979 234.876V235.703C295.979 235.848 296.106 235.965 296.264 235.965Z" fill="#3F3D56"/>
<path d="M291.367 235.965H293.245C293.402 235.965 293.53 235.848 293.53 235.703V234.876C293.53 234.73 293.402 234.613 293.245 234.613H291.367C291.209 234.613 291.081 234.73 291.081 234.876V235.703C291.081 235.848 291.209 235.965 291.367 235.965Z" fill="#3F3D56"/>
<path d="M324.18 238.671H343.199C343.356 238.671 343.484 238.553 343.484 238.408V237.581C343.484 237.436 343.356 237.318 343.199 237.318H324.18C324.022 237.318 323.894 237.436 323.894 237.581V238.408C323.894 238.553 324.022 238.671 324.18 238.671Z" fill="#3F3D56"/>
<path d="M304.03 193.079H302.367C301.863 193.079 301.454 193.455 301.454 193.919C301.454 194.383 301.863 194.76 302.367 194.76H304.03C304.534 194.76 304.942 194.383 304.942 193.919C304.942 193.455 304.534 193.079 304.03 193.079Z" fill="white"/>
<path d="M323.043 193.079H321.381C320.877 193.079 320.468 193.455 320.468 193.919C320.468 194.383 320.877 194.76 321.381 194.76H323.043C323.548 194.76 323.956 194.383 323.956 193.919C323.956 193.455 323.548 193.079 323.043 193.079Z" fill="white"/>
<path d="M328.431 193.079H326.768C326.264 193.079 325.856 193.455 325.856 193.919C325.856 194.383 326.264 194.76 326.768 194.76H328.431C328.935 194.76 329.343 194.383 329.343 193.919C329.343 193.455 328.935 193.079 328.431 193.079Z" fill="white"/>
<path d="M317.872 192.939H307.539C307.035 192.939 306.626 193.315 306.626 193.779C306.626 194.243 307.035 194.619 307.539 194.619H317.872C318.376 194.619 318.784 194.243 318.784 193.779C318.784 193.315 318.376 192.939 317.872 192.939Z" fill="white"/>
<path d="M343.224 192.939H332.891C332.387 192.939 331.978 193.315 331.978 193.779C331.978 194.243 332.387 194.619 332.891 194.619H343.224C343.728 194.619 344.136 194.243 344.136 193.779C344.136 193.315 343.728 192.939 343.224 192.939Z" fill="white"/>
<path d="M309.1 196.872H307.437C306.933 196.872 306.525 197.248 306.525 197.712C306.525 198.176 306.933 198.552 307.437 198.552H309.1C309.604 198.552 310.013 198.176 310.013 197.712C310.013 197.248 309.604 196.872 309.1 196.872Z" fill="white"/>
<path d="M328.114 196.872H326.451C325.947 196.872 325.539 197.248 325.539 197.712C325.539 198.176 325.947 198.552 326.451 198.552H328.114C328.618 198.552 329.027 198.176 329.027 197.712C329.027 197.248 328.618 196.872 328.114 196.872Z" fill="white"/>
<path d="M333.501 196.872H331.839C331.335 196.872 330.926 197.248 330.926 197.712C330.926 198.176 331.335 198.552 331.839 198.552H333.501C334.005 198.552 334.414 198.176 334.414 197.712C334.414 197.248 334.005 196.872 333.501 196.872Z" fill="white"/>
<path d="M322.942 196.732H312.609C312.105 196.732 311.697 197.108 311.697 197.572C311.697 198.036 312.105 198.412 312.609 198.412H322.942C323.446 198.412 323.855 198.036 323.855 197.572C323.855 197.108 323.446 196.732 322.942 196.732Z" fill="white"/>
<path d="M348.294 196.732H337.961C337.457 196.732 337.049 197.108 337.049 197.572C337.049 198.036 337.457 198.412 337.961 198.412H348.294C348.798 198.412 349.207 198.036 349.207 197.572C349.207 197.108 348.798 196.732 348.294 196.732Z" fill="white"/>
<path d="M314.17 200.664H312.508C312.004 200.664 311.595 201.041 311.595 201.505C311.595 201.969 312.004 202.345 312.508 202.345H314.17C314.674 202.345 315.083 201.969 315.083 201.505C315.083 201.041 314.674 200.664 314.17 200.664Z" fill="white"/>
<path d="M333.184 200.664H331.522C331.018 200.664 330.609 201.041 330.609 201.505C330.609 201.969 331.018 202.345 331.522 202.345H333.184C333.688 202.345 334.097 201.969 334.097 201.505C334.097 201.041 333.688 200.664 333.184 200.664Z" fill="white"/>
<path d="M338.572 200.664H336.909C336.405 200.664 335.996 201.041 335.996 201.505C335.996 201.969 336.405 202.345 336.909 202.345H338.572C339.076 202.345 339.484 201.969 339.484 201.505C339.484 201.041 339.076 200.664 338.572 200.664Z" fill="white"/>
<path d="M328.012 200.524H317.68C317.176 200.524 316.767 200.9 316.767 201.365C316.767 201.829 317.176 202.205 317.68 202.205H328.012C328.516 202.205 328.925 201.829 328.925 201.365C328.925 200.9 328.516 200.524 328.012 200.524Z" fill="white"/>
<path d="M353.364 200.524H343.032C342.528 200.524 342.119 200.9 342.119 201.365C342.119 201.829 342.528 202.205 343.032 202.205H353.364C353.868 202.205 354.277 201.829 354.277 201.365C354.277 200.9 353.868 200.524 353.364 200.524Z" fill="white"/>
<path d="M319.241 204.457H317.578C317.074 204.457 316.666 204.833 316.666 205.297C316.666 205.761 317.074 206.137 317.578 206.137H319.241C319.745 206.137 320.153 205.761 320.153 205.297C320.153 204.833 319.745 204.457 319.241 204.457Z" fill="white"/>
<path d="M338.255 204.457H336.592C336.088 204.457 335.68 204.833 335.68 205.297C335.68 205.761 336.088 206.137 336.592 206.137H338.255C338.759 206.137 339.167 205.761 339.167 205.297C339.167 204.833 338.759 204.457 338.255 204.457Z" fill="white"/>
<path d="M343.642 204.457H341.979C341.475 204.457 341.067 204.833 341.067 205.297C341.067 205.761 341.475 206.137 341.979 206.137H343.642C344.146 206.137 344.555 205.761 344.555 205.297C344.555 204.833 344.146 204.457 343.642 204.457Z" fill="white"/>
<path d="M333.083 204.317H322.75C322.246 204.317 321.837 204.693 321.837 205.157C321.837 205.621 322.246 205.997 322.75 205.997H333.083C333.587 205.997 333.995 205.621 333.995 205.157C333.995 204.693 333.587 204.317 333.083 204.317Z" fill="white"/>
<path d="M323.043 219.538H321.381C320.877 219.538 320.468 219.914 320.468 220.378C320.468 220.842 320.877 221.219 321.381 221.219H323.043C323.548 221.219 323.956 220.842 323.956 220.378C323.956 219.914 323.548 219.538 323.043 219.538Z" fill="white"/>
<path d="M328.431 219.538H326.768C326.264 219.538 325.856 219.914 325.856 220.378C325.856 220.842 326.264 221.219 326.768 221.219H328.431C328.935 221.219 329.343 220.842 329.343 220.378C329.343 219.914 328.935 219.538 328.431 219.538Z" fill="white"/>
<path d="M343.224 219.678H332.891C332.387 219.678 331.978 220.054 331.978 220.518C331.978 220.983 332.387 221.359 332.891 221.359H343.224C343.728 221.359 344.136 220.983 344.136 220.518C344.136 220.054 343.728 219.678 343.224 219.678Z" fill="white"/>
<path d="M304.03 219.538H302.367C301.863 219.538 301.454 219.914 301.454 220.378C301.454 220.842 301.863 221.219 302.367 221.219H304.03C304.534 221.219 304.942 220.842 304.942 220.378C304.942 219.914 304.534 219.538 304.03 219.538Z" fill="white"/>
<path d="M317.872 219.678H307.539C307.035 219.678 306.626 220.054 306.626 220.518C306.626 220.983 307.035 221.359 307.539 221.359H317.872C318.376 221.359 318.784 220.983 318.784 220.518C318.784 220.054 318.376 219.678 317.872 219.678Z" fill="white"/>
<path d="M309.1 215.746H307.437C306.933 215.746 306.525 216.122 306.525 216.586C306.525 217.05 306.933 217.426 307.437 217.426H309.1C309.604 217.426 310.013 217.05 310.013 216.586C310.013 216.122 309.604 215.746 309.1 215.746Z" fill="white"/>
<path d="M328.114 215.746H326.451C325.947 215.746 325.539 216.122 325.539 216.586C325.539 217.05 325.947 217.426 326.451 217.426H328.114C328.618 217.426 329.027 217.05 329.027 216.586C329.027 216.122 328.618 215.746 328.114 215.746Z" fill="white"/>
<path d="M333.501 215.746H331.839C331.335 215.746 330.926 216.122 330.926 216.586C330.926 217.05 331.335 217.426 331.839 217.426H333.501C334.005 217.426 334.414 217.05 334.414 216.586C334.414 216.122 334.005 215.746 333.501 215.746Z" fill="white"/>
<path d="M322.942 215.886H312.609C312.105 215.886 311.697 216.262 311.697 216.726C311.697 217.19 312.105 217.566 312.609 217.566H322.942C323.446 217.566 323.855 217.19 323.855 216.726C323.855 216.262 323.446 215.886 322.942 215.886Z" fill="white"/>
<path d="M314.17 211.953H312.508C312.004 211.953 311.595 212.329 311.595 212.793C311.595 213.257 312.004 213.633 312.508 213.633H314.17C314.674 213.633 315.083 213.257 315.083 212.793C315.083 212.329 314.674 211.953 314.17 211.953Z" fill="white"/>
<path d="M333.184 211.953H331.522C331.018 211.953 330.609 212.329 330.609 212.793C330.609 213.257 331.018 213.633 331.522 213.633H333.184C333.688 213.633 334.097 213.257 334.097 212.793C334.097 212.329 333.688 211.953 333.184 211.953Z" fill="white"/>
<path d="M338.572 211.953H336.909C336.405 211.953 335.996 212.329 335.996 212.793C335.996 213.257 336.405 213.633 336.909 213.633H338.572C339.076 213.633 339.484 213.257 339.484 212.793C339.484 212.329 339.076 211.953 338.572 211.953Z" fill="white"/>
<path d="M328.012 212.093H317.68C317.176 212.093 316.767 212.469 316.767 212.933C316.767 213.397 317.176 213.773 317.68 213.773H328.012C328.516 213.773 328.925 213.397 328.925 212.933C328.925 212.469 328.516 212.093 328.012 212.093Z" fill="white"/>
<path d="M319.241 208.16H317.578C317.074 208.16 316.666 208.536 316.666 209C316.666 209.465 317.074 209.841 317.578 209.841H319.241C319.745 209.841 320.153 209.465 320.153 209C320.153 208.536 319.745 208.16 319.241 208.16Z" fill="white"/>
<path d="M338.255 208.16H336.592C336.088 208.16 335.68 208.536 335.68 209C335.68 209.465 336.088 209.841 336.592 209.841H338.255C338.759 209.841 339.167 209.465 339.167 209C339.167 208.536 338.759 208.16 338.255 208.16Z" fill="white"/>
<path d="M343.642 208.16H341.979C341.475 208.16 341.067 208.536 341.067 209C341.067 209.465 341.475 209.841 341.979 209.841H343.642C344.146 209.841 344.555 209.465 344.555 209C344.555 208.536 344.146 208.16 343.642 208.16Z" fill="white"/>
<path d="M333.083 208.3H322.75C322.246 208.3 321.837 208.677 321.837 209.141C321.837 209.605 322.246 209.981 322.75 209.981H333.083C333.587 209.981 333.995 209.605 333.995 209.141C333.995 208.677 333.587 208.3 333.083 208.3Z" fill="white"/>
<path d="M295.191 263.986L287.386 252.629L311.883 234.651L321.995 224.338C323.308 222.998 324.981 222 326.845 221.441C328.71 220.883 330.701 220.785 332.619 221.157C334.538 221.529 336.317 222.358 337.778 223.561C339.239 224.764 340.332 226.299 340.947 228.013C341.859 230.553 341.663 233.319 340.401 235.728C339.139 238.138 336.909 240.001 334.183 240.926L318.194 246.348L295.191 263.986Z" fill="#FFB6B6"/>
<path d="M112.068 181.639V236.838H154.074V181.639C154.075 181.242 153.937 180.855 153.681 180.535C153.426 180.215 153.065 179.98 152.653 179.862C152.459 179.803 152.256 179.774 152.051 179.776H114.097C113.831 179.776 113.567 179.824 113.321 179.917C113.075 180.01 112.852 180.147 112.663 180.32C112.475 180.493 112.325 180.699 112.223 180.925C112.121 181.151 112.068 181.394 112.068 181.639ZM128.461 200.605C128.472 199.517 128.949 198.477 129.789 197.711C130.629 196.945 131.763 196.515 132.945 196.515C134.127 196.515 135.262 196.945 136.101 197.711C136.941 198.477 137.418 199.517 137.429 200.605V207.01C137.423 208.101 136.948 209.146 136.108 209.916C135.268 210.685 134.131 211.117 132.945 211.117C131.76 211.117 130.623 210.685 129.783 209.916C128.942 209.146 128.467 208.101 128.461 207.01V200.605Z" fill="#2F2E41"/>
<path d="M111.939 235.073V240.396C111.94 240.672 112.059 240.936 112.271 241.131C112.482 241.327 112.768 241.438 113.068 241.44H153.074C153.374 241.439 153.661 241.328 153.872 241.132C154.084 240.937 154.203 240.672 154.202 240.396V235.073H111.939Z" fill="#3F3D56"/>
<path d="M45.9871 98.473V199.26C45.9882 200.544 46.5429 201.776 47.5295 202.684C48.516 203.592 49.8537 204.103 51.2488 204.104H213.484C214.879 204.103 216.217 203.592 217.203 202.684C218.19 201.776 218.745 200.544 218.746 199.26V98.473C218.742 97.1898 218.187 95.96 217.201 95.0531C216.214 94.1462 214.878 93.6361 213.484 93.6345H51.2488C49.8549 93.6361 48.5185 94.1462 47.5323 95.0531C46.546 95.96 45.9904 97.1898 45.9871 98.473Z" fill="#3F3D56"/>
<path d="M49.7931 99.727V198.017C49.7944 198.703 50.091 199.361 50.6181 199.846C51.1452 200.331 51.8598 200.604 52.6052 200.605H212.134C212.879 200.604 213.594 200.331 214.121 199.846C214.648 199.361 214.944 198.703 214.946 198.017V99.727C214.946 99.04 214.65 98.381 214.122 97.8946C213.595 97.4083 212.88 97.1343 212.134 97.1328H52.6052C51.8588 97.1343 51.1436 97.4083 50.6165 97.8946C50.0893 98.381 49.7932 99.04 49.7931 99.727Z" fill="white"/>
<path d="M79.3988 241.08C79.5612 241.267 79.7676 241.418 80.0025 241.522C80.2374 241.625 80.4948 241.678 80.7552 241.677H175.664C175.924 241.677 176.18 241.623 176.414 241.52C176.649 241.417 176.855 241.268 177.018 241.082C177.182 240.896 177.299 240.68 177.36 240.447C177.421 240.215 177.425 239.973 177.371 239.739L175.898 233.297C175.837 233.034 175.706 232.79 175.516 232.586C175.326 232.382 175.083 232.225 174.811 232.129C174.613 232.058 174.403 232.021 174.191 232.021H82.2226C82.0105 232.021 81.8003 232.058 81.6029 232.129C81.3302 232.225 81.0879 232.382 80.8979 232.586C80.708 232.79 80.5765 233.034 80.5155 233.297L79.0422 239.739C78.9898 239.973 78.9946 240.215 79.0563 240.446C79.118 240.678 79.235 240.895 79.3988 241.08Z" fill="#2F2E41"/>
<path d="M206.956 110.673H57.6863C57.5311 110.669 57.3835 110.611 57.275 110.508C57.1665 110.406 57.1057 110.269 57.1057 110.126C57.1057 109.983 57.1665 109.846 57.275 109.744C57.3835 109.642 57.5311 109.583 57.6863 109.58H206.956C207.112 109.583 207.259 109.642 207.368 109.744C207.476 109.846 207.537 109.983 207.537 110.126C207.537 110.269 207.476 110.406 207.368 110.508C207.259 110.611 207.112 110.669 206.956 110.673Z" fill="#3F3D56"/>
<path d="M67.8473 106.789C69.7686 106.789 71.3261 105.324 71.3261 103.515C71.3261 101.707 69.7686 100.241 67.8473 100.241C65.926 100.241 64.3685 101.707 64.3685 103.515C64.3685 105.324 65.926 106.789 67.8473 106.789Z" fill="#3F3D56"/>
<path d="M79.865 106.789C81.7863 106.789 83.3438 105.324 83.3438 103.515C83.3438 101.707 81.7863 100.241 79.865 100.241C77.9437 100.241 76.3862 101.707 76.3862 103.515C76.3862 105.324 77.9437 106.789 79.865 106.789Z" fill="#3F3D56"/>
<path d="M91.8827 106.789C93.804 106.789 95.3615 105.324 95.3615 103.515C95.3615 101.707 93.804 100.241 91.8827 100.241C89.9614 100.241 88.4039 101.707 88.4039 103.515C88.4039 105.324 89.9614 106.789 91.8827 106.789Z" fill="#3F3D56"/>
<path d="M199.72 101.051H191.184C191.015 101.055 190.855 101.119 190.737 101.23C190.619 101.341 190.553 101.49 190.553 101.646C190.553 101.801 190.619 101.95 190.737 102.062C190.855 102.173 191.015 102.237 191.184 102.241H199.72C199.89 102.238 200.052 102.175 200.171 102.063C200.29 101.952 200.357 101.802 200.357 101.646C200.357 101.49 200.29 101.34 200.171 101.228C200.052 101.117 199.89 101.053 199.72 101.051Z" fill="#3F3D56"/>
<path d="M199.72 103.285H191.184C191.015 103.288 190.855 103.352 190.736 103.463C190.618 103.575 190.552 103.724 190.552 103.879C190.552 104.035 190.618 104.184 190.736 104.295C190.855 104.407 191.015 104.471 191.184 104.474H199.72C199.89 104.472 200.052 104.409 200.172 104.297C200.291 104.186 200.358 104.036 200.358 103.879C200.358 103.723 200.291 103.573 200.172 103.461C200.052 103.35 199.89 103.287 199.72 103.285Z" fill="#3F3D56"/>
<path d="M199.72 105.518H191.184C191.015 105.522 190.855 105.586 190.737 105.697C190.619 105.808 190.553 105.958 190.553 106.113C190.553 106.268 190.619 106.418 190.737 106.529C190.855 106.64 191.015 106.704 191.184 106.708H199.72C199.89 106.706 200.052 106.642 200.171 106.531C200.29 106.419 200.357 106.269 200.357 106.113C200.357 105.957 200.29 105.807 200.171 105.695C200.052 105.584 199.89 105.52 199.72 105.518Z" fill="#3F3D56"/>
<path d="M405.498 237.409C405.756 238.099 406.244 238.697 406.894 239.116C407.543 239.535 408.32 239.753 409.113 239.74L424.601 239.373C425.4 239.359 426.172 239.107 426.802 238.655C427.432 238.203 427.887 237.576 428.098 236.867L430.289 215.291C431.067 215.615 431.913 215.775 432.767 215.76C433.508 215.743 434.239 215.591 434.917 215.314C435.595 215.037 436.207 214.64 436.718 214.145C437.229 213.65 437.63 213.067 437.896 212.43C438.163 211.793 438.29 211.114 438.272 210.431C438.253 209.748 438.089 209.076 437.788 208.452C437.487 207.827 437.055 207.264 436.518 206.793C435.98 206.323 435.347 205.954 434.655 205.709C433.963 205.463 433.225 205.346 432.483 205.363C432.142 205.362 431.802 205.395 431.468 205.46C431.106 205.099 430.665 204.812 430.174 204.617C429.683 204.422 429.153 204.323 428.619 204.328L404.795 204.895C404.597 204.902 404.401 204.924 404.207 204.962C403.685 205.052 403.189 205.243 402.754 205.524C402.319 205.805 401.954 206.168 401.684 206.59C401.414 207.011 401.245 207.481 401.189 207.967C401.133 208.454 401.19 208.946 401.358 209.41L405.498 237.409ZM430.739 213.826L432.298 208.685C432.476 208.091 432.48 207.464 432.31 206.868C432.386 206.868 432.453 206.835 432.528 206.835C433.598 206.815 434.632 207.185 435.405 207.866C436.178 208.547 436.626 209.482 436.651 210.466C436.676 211.451 436.276 212.404 435.539 213.118C434.801 213.831 433.787 214.246 432.717 214.272C432.026 214.291 431.342 214.137 430.739 213.826Z" fill="#2F2E41"/>
<path d="M404.207 204.962C404.715 207.634 410.421 209.512 417.283 209.185C423.593 208.918 428.752 206.878 429.697 204.461C429.347 204.365 428.984 204.321 428.619 204.328L404.795 204.895C404.597 204.901 404.401 204.924 404.207 204.962Z" fill="#3F3D56"/>
<path d="M418.54 225.553C418.572 225.546 418.602 225.534 418.629 225.517L421.992 223.491C422.033 223.466 422.066 223.433 422.089 223.394C422.113 223.354 422.125 223.31 422.125 223.266C422.125 223.221 422.113 223.177 422.089 223.138C422.066 223.098 422.033 223.065 421.992 223.041L418.496 220.932C418.464 220.913 418.428 220.899 418.391 220.893C418.353 220.886 418.314 220.886 418.276 220.893C418.239 220.9 418.203 220.914 418.171 220.934C418.139 220.954 418.112 220.98 418.091 221.009C418.07 221.039 418.055 221.072 418.048 221.107C418.041 221.142 418.041 221.177 418.049 221.212C418.057 221.247 418.072 221.28 418.094 221.309C418.116 221.338 418.144 221.363 418.176 221.382L421.299 223.265L418.309 225.067C418.251 225.102 418.208 225.155 418.189 225.216C418.169 225.277 418.173 225.342 418.201 225.4C418.229 225.459 418.278 225.506 418.34 225.534C418.403 225.562 418.473 225.569 418.54 225.553H418.54Z" fill="#3A2B97"/>
<path d="M413.228 225.779C413.285 225.765 413.335 225.737 413.374 225.697C413.413 225.657 413.438 225.607 413.446 225.554C413.454 225.501 413.444 225.447 413.419 225.399C413.393 225.351 413.352 225.311 413.302 225.284L410.201 223.648L413.198 221.599C413.229 221.578 413.255 221.551 413.275 221.521C413.294 221.491 413.307 221.457 413.313 221.422C413.318 221.387 413.316 221.352 413.307 221.317C413.298 221.283 413.281 221.251 413.258 221.223C413.235 221.194 413.207 221.17 413.174 221.152C413.141 221.134 413.104 221.122 413.066 221.117C413.029 221.112 412.99 221.114 412.953 221.122C412.915 221.131 412.88 221.146 412.85 221.167L409.495 223.461C409.456 223.488 409.425 223.523 409.404 223.564C409.383 223.604 409.374 223.649 409.377 223.693C409.38 223.738 409.395 223.781 409.42 223.819C409.446 223.857 409.481 223.888 409.523 223.911L413.011 225.751C413.077 225.786 413.155 225.796 413.228 225.779Z" fill="#3A2B97"/>
<path d="M418.206 227.329C418.234 227.323 418.261 227.312 418.286 227.298C418.319 227.28 418.347 227.256 418.37 227.227C418.393 227.198 418.409 227.166 418.418 227.132C418.427 227.097 418.429 227.062 418.423 227.027C418.417 226.992 418.404 226.958 418.384 226.928L413.616 219.712C413.576 219.651 413.511 219.607 413.435 219.59C413.36 219.574 413.281 219.585 413.214 219.622C413.148 219.659 413.101 219.719 413.082 219.788C413.064 219.858 413.076 219.931 413.117 219.992L417.884 227.208C417.917 227.257 417.966 227.296 418.024 227.317C418.081 227.339 418.145 227.343 418.206 227.329Z" fill="#3A2B97"/>
<path d="M150.157 140.382H124.321C123.267 140.382 122.413 141.169 122.413 142.139V144.463C122.413 145.433 123.267 146.219 124.321 146.219H150.157C151.211 146.219 152.065 145.433 152.065 144.463V142.139C152.065 141.169 151.211 140.382 150.157 140.382Z" fill="#3A2B97"/>
<path d="M165.216 152.057H109.262C108.208 152.057 107.354 152.843 107.354 153.814V156.137C107.354 157.108 108.208 157.894 109.262 157.894H165.216C166.27 157.894 167.124 157.108 167.124 156.137V153.814C167.124 152.843 166.27 152.057 165.216 152.057Z" fill="#E6E6E6"/>
<path d="M165.216 163.732H109.262C108.208 163.732 107.354 164.518 107.354 165.488V167.812C107.354 168.782 108.208 169.569 109.262 169.569H165.216C166.27 169.569 167.124 168.782 167.124 167.812V165.488C167.124 164.518 166.27 163.732 165.216 163.732Z" fill="#E6E6E6"/>
<path d="M169.959 202.826L170.086 203.194L170.092 203.206L173.907 213.883L178.296 226.188L186.552 249.31L186.632 252.902V252.914L187.246 281.808L185.545 285.726L187.459 292.148C187.459 292.148 186.579 282.44 181.857 288.015C179.183 291.183 176.055 294.425 173.487 297.464C177.229 298.858 181.03 300.119 184.892 301.246C185.725 301.492 186.566 301.725 187.406 301.958C187.586 302.008 187.766 302.057 187.946 302.106C200.746 305.591 213.98 307.549 227.322 307.932C228.015 307.951 228.695 307.963 229.356 307.975C229.589 307.982 229.816 307.988 230.043 307.988C230.79 307.994 231.53 308 232.277 308C233.784 308 235.285 307.98 236.779 307.939C247.836 307.652 258.829 306.283 269.571 303.856C269.498 299.773 269.298 295.002 269.011 289.906C268.878 287.407 265.883 284.699 265.703 282.084C265.577 280.119 268.264 278.271 268.124 276.276C267.217 263.99 266.083 268.706 265.243 260.006C265.156 259.152 265.076 258.336 265.003 257.556C264.463 251.969 264.089 248.475 264.089 248.475L267.677 227.655L273.313 194.967L272.879 194.31L272.393 194.089L242.668 180.544L241.054 176.738C240.583 175.641 239.767 174.699 238.711 174.032C237.654 173.366 236.405 173.006 235.125 172.998L215.544 172.925C214.527 172.92 213.525 173.139 212.619 173.563C211.713 173.987 210.93 174.604 210.335 175.362L205.033 182.122L169.959 202.826Z" fill="#3F3D56"/>
<path d="M191.067 244.165L186.632 252.902L183.604 258.87L178.396 283.976L175.788 286.524L173.554 277.504L150.17 282.283C149.403 278.36 149.965 282.416 149.491 278.112C149.624 277.989 149.764 277.867 149.904 277.744C150.278 277.424 150.591 277.124 150.585 276.835C150.318 261.989 151.118 236.724 157.801 221.417C158.848 218.918 160.228 216.548 161.909 214.362C162.043 214.197 162.169 214.031 162.296 213.865C165.377 209.893 167.325 205.981 170.086 203.2V203.194C170.103 203.181 170.119 203.167 170.132 203.151C170.142 203.146 170.151 203.14 170.159 203.133L189.127 193.874L189.94 214.921L190.52 230.05L191.067 244.165Z" fill="#3F3D56"/>
<path d="M259.46 246.647L265 257.559L266.934 261.359L272.141 286.463L274.74 289.004L276.98 279.987L278.032 279.788L297.008 276.17L302.539 292.341C303.786 290.429 304.277 288.179 303.93 285.972C303.582 283.765 302.417 281.736 300.633 280.228C300.255 279.914 299.94 279.607 299.949 279.318C300.264 261.856 299.104 229.972 288.626 216.849C285.299 212.684 283.302 208.536 280.397 205.638C280.388 205.63 280.388 205.622 280.379 205.622L273.31 194.966L272.879 194.312L272.393 194.088L259.46 246.647Z" fill="#3F3D56"/>
<path d="M225.9 167.795C240.287 167.795 251.95 157.057 251.95 143.812C251.95 130.567 240.287 119.83 225.9 119.83C211.513 119.83 199.85 130.567 199.85 143.812C199.85 157.057 211.513 167.795 225.9 167.795Z" fill="#FFB6B6"/>
<path d="M261.11 127.061C260.908 126.862 260.664 126.703 260.394 126.593C260.124 126.483 259.832 126.424 259.537 126.421L259.929 125.419C260.057 125.104 260.091 124.763 260.029 124.432C259.966 124.1 259.809 123.789 259.574 123.532C259.338 123.275 259.032 123.08 258.688 122.967C258.344 122.854 257.973 122.827 257.614 122.89L256.187 123.143L256.321 122.265C256.373 121.939 256.331 121.605 256.2 121.298C256.07 120.99 255.854 120.72 255.575 120.512C255.296 120.305 254.963 120.168 254.609 120.115C254.255 120.062 253.892 120.094 253.556 120.209C253.25 120.32 252.922 120.367 252.594 120.345C252.266 120.324 251.948 120.235 251.662 120.086C251.375 119.941 251.126 119.74 250.932 119.497C250.738 119.255 250.604 118.976 250.539 118.681L250.043 116.474L249.99 116.356C247.57 112.642 242.916 109.94 237.222 108.95C232.153 108.062 226.955 108.514 221.945 108.939C219.957 109.111 217.712 109.305 215.842 110.36C214.251 111.264 212.907 113.073 213.182 114.897C208.241 113.503 202.945 116.286 200.32 119.795C197.209 123.972 196.701 129.203 196.619 133.294C196.397 142.971 198.566 150.888 203.05 156.83C203.377 157.26 203.459 158.159 204.108 158.461L203.974 158.262C204.699 158.595 205.435 159.133 205.16 159.709C204.371 161.367 209.615 165.032 213.31 166.243C220.051 168.455 229.013 168.267 235.316 167.47L235.538 166.098C237.812 165.813 239.414 165.269 239.864 164.419C240.659 163.794 241.337 163.235 241.928 162.718L241.934 162.713C241.945 162.702 241.969 162.686 241.98 162.675C244.828 160.161 245.488 158.73 245.786 156.55C246.073 154.413 245.564 152.244 245.044 150.291C256 151.851 240.729 139.548 250.937 137.169C251.054 137.136 251.173 137.109 251.294 137.088C251.592 137.023 251.89 136.959 252.176 136.884C253.557 136.538 254.88 136.019 256.105 135.339C258.958 133.74 259.899 131.62 261.373 129.23C261.585 128.89 261.674 128.496 261.627 128.106C261.58 127.716 261.399 127.35 261.11 127.061Z" fill="#2F2E41"/>
<path d="M318.035 248.354C318.029 249.296 318.018 250.615 317.971 252.245C317.965 252.471 317.959 252.703 317.953 252.94C317.877 255.938 317.801 258.451 317.679 261.244C317.673 261.438 317.667 261.627 317.655 261.82C317.491 265.717 317.234 270.254 316.79 277.439C315.966 290.712 314.527 279.264 313.083 283.92C313.013 284.151 312.937 284.426 312.867 284.748C312.648 285.92 312.279 287.064 311.768 288.155C311.002 288.575 310.213 288.979 309.435 289.383C307.219 290.518 304.969 291.611 302.7 292.65C301.426 293.231 300.145 293.801 298.859 294.35C298.655 294.436 298.456 294.523 298.257 294.603C291.671 297.408 284.883 299.792 277.941 301.74C276.585 302.117 275.234 302.483 273.866 302.822C272.44 303.188 271.013 303.532 269.569 303.855C258.827 306.283 247.834 307.653 236.777 307.94C235.286 307.983 233.784 308 232.276 308C231.527 308 230.791 307.994 230.042 307.989C229.814 307.989 229.586 307.983 229.358 307.978C228.698 307.962 228.014 307.951 227.324 307.935C213.982 307.552 200.749 305.593 187.949 302.106L187.405 301.961C186.563 301.724 185.727 301.492 184.891 301.245C181.033 300.12 177.231 298.861 173.485 297.467C170.626 296.406 167.8 295.269 165.008 294.054C164.982 294.048 164.958 294.037 164.938 294.022C164.353 293.774 163.763 293.516 163.178 293.252C163.102 293.215 163.02 293.177 162.938 293.139C160.758 292.16 158.6 291.134 156.466 290.061C154.672 286.266 152.146 285.54 150.579 282.203C150.123 281.211 149.794 280.175 149.597 279.113C149.597 279.103 149.591 279.092 149.591 279.076C149.755 281.078 148.895 275.523 149.585 279.054C149.579 278.989 149.574 278.92 149.568 278.839C149.55 278.645 149.527 278.408 149.492 278.112C147.486 260.087 147.615 239.473 146.744 222.487C146.685 221.389 146.625 220.338 146.563 219.333C146.545 219 146.522 218.671 146.498 218.348C146.539 218.251 146.586 218.149 146.639 218.052C146.65 218.024 146.664 217.997 146.68 217.972C146.697 217.938 146.716 217.906 146.738 217.875C146.75 217.859 146.767 217.837 146.779 217.821C146.788 217.802 146.797 217.784 146.808 217.767C146.861 217.692 146.919 217.611 146.984 217.536C147.013 217.503 147.036 217.476 147.066 217.45C147.086 217.422 147.109 217.397 147.136 217.374C147.154 217.348 147.175 217.325 147.2 217.304C147.223 217.283 147.247 217.256 147.276 217.229C147.288 217.212 147.304 217.197 147.323 217.186C147.369 217.137 147.42 217.092 147.475 217.051C147.683 216.875 147.906 216.713 148.141 216.567C148.223 216.518 148.311 216.47 148.393 216.416C148.982 216.092 149.602 215.818 150.246 215.598C150.468 215.523 150.69 215.453 150.93 215.377C151.018 215.356 151.099 215.329 151.187 215.302C151.316 215.264 151.444 215.227 151.579 215.2C152.245 215.017 152.964 214.861 153.742 214.715C153.836 214.699 153.935 214.683 154.034 214.662C154.175 214.635 154.321 214.613 154.467 214.592C154.666 214.559 154.87 214.527 155.075 214.495C156.811 214.242 158.782 214.053 160.956 213.93C161.161 213.919 161.366 213.908 161.57 213.897C161.81 213.887 162.05 213.876 162.295 213.865C162.5 213.854 162.71 213.849 162.921 213.843C163.125 213.833 163.336 213.827 163.552 213.822C164.143 213.806 164.751 213.79 165.37 213.779C167.136 213.747 168.995 213.757 170.948 213.795C171.854 213.817 172.778 213.838 173.725 213.876C173.789 213.876 173.847 213.881 173.906 213.881C174.73 213.908 175.56 213.94 176.414 213.983C177.01 214.01 177.613 214.037 178.215 214.07C178.782 214.102 179.355 214.134 179.933 214.172C180.384 214.193 180.834 214.226 181.29 214.253C181.676 214.279 182.062 214.306 182.447 214.328L182.974 214.36C183.26 214.382 183.547 214.398 183.839 214.425C184.482 214.473 185.125 214.522 185.78 214.57C186.429 214.624 187.089 214.678 187.75 214.732C188.411 214.785 189.077 214.845 189.744 214.904C189.814 214.909 189.878 214.915 189.942 214.92C190.55 214.979 191.158 215.033 191.772 215.092C191.913 215.103 192.059 215.114 192.199 215.13C192.784 215.184 193.381 215.247 193.972 215.305C194.153 215.323 194.333 215.341 194.515 215.359C194.978 215.405 195.434 215.445 195.9 215.496C196.514 215.56 197.139 215.62 197.747 215.695C198.221 215.743 198.694 215.792 199.168 215.846C199.91 215.926 200.664 216.012 201.419 216.104C201.705 216.136 201.992 216.169 202.278 216.206C204.43 216.454 206.604 216.728 208.814 217.014C212.164 217.45 215.567 217.923 218.993 218.434C222.424 218.946 225.876 219.486 229.347 220.055C230.223 220.2 231.1 220.345 231.983 220.496C232.381 220.566 232.778 220.636 233.176 220.706C233.854 220.819 234.532 220.937 235.21 221.056C235.889 221.174 236.567 221.292 237.245 221.416C238.052 221.561 238.864 221.707 239.671 221.852C244.985 222.821 250.27 223.854 255.427 224.936C256.275 225.114 257.122 225.297 257.964 225.474C259.648 225.835 261.316 226.201 262.969 226.572C263.425 226.669 263.875 226.771 264.325 226.874C265.448 227.132 266.57 227.39 267.675 227.654L267.868 227.703C268.681 227.886 269.476 228.074 270.271 228.268C272.147 228.72 273.993 229.177 275.807 229.64C277.012 229.947 278.202 230.257 279.379 230.571C281.139 231.04 282.864 231.513 284.542 231.992C284.957 232.111 285.372 232.229 285.781 232.342C287.009 232.692 288.219 233.047 289.394 233.402C290.329 233.682 291.241 233.967 292.142 234.253C293.042 234.538 293.925 234.823 294.79 235.108C295.346 235.291 295.895 235.485 296.445 235.668C297.234 235.937 298.012 236.206 298.772 236.476C299.005 236.556 299.233 236.642 299.461 236.723C299.608 236.782 299.748 236.831 299.888 236.885C300.163 236.987 300.444 237.084 300.713 237.186C300.987 237.283 301.256 237.385 301.525 237.493C301.788 237.59 302.057 237.692 302.314 237.794C302.577 237.891 302.835 237.993 303.092 238.101C303.308 238.182 303.519 238.268 303.723 238.354C304.138 238.521 304.554 238.688 304.957 238.86C305.156 238.946 305.354 239.027 305.553 239.113L306.009 239.307C306.074 239.339 306.138 239.366 306.202 239.393C306.348 239.457 306.5 239.527 306.646 239.592C306.986 239.737 307.319 239.893 307.646 240.039C308.085 240.243 308.511 240.448 308.921 240.647C309.336 240.851 309.739 241.056 310.125 241.255C310.189 241.287 310.248 241.32 310.312 241.352C310.4 241.395 310.488 241.443 310.575 241.486C310.873 241.642 311.16 241.804 311.446 241.96C312.008 242.278 312.54 242.59 313.037 242.902C313.148 242.972 313.253 243.042 313.364 243.106C313.732 243.349 314.083 243.585 314.41 243.828C314.41 243.833 314.41 243.833 314.416 243.833C314.527 243.908 314.633 243.989 314.738 244.064C314.826 244.14 314.919 244.204 315.007 244.28C315.311 244.522 315.591 244.753 315.849 244.99C315.935 245.063 316.017 245.141 316.094 245.222C316.128 245.248 316.16 245.276 316.188 245.308C316.305 245.415 316.41 245.523 316.509 245.631C316.525 245.645 316.538 245.662 316.55 245.679C316.69 245.83 316.819 245.98 316.942 246.131C317 246.207 317.065 246.282 317.117 246.357C317.187 246.449 317.258 246.546 317.316 246.637C317.369 246.712 317.415 246.793 317.462 246.869C317.586 247.063 317.692 247.266 317.778 247.477C317.844 247.62 317.896 247.767 317.936 247.918C317.98 248.061 318.013 248.207 318.035 248.354Z" fill="#2F2E41"/>
<path opacity="0.2" d="M318.035 248.354C318.029 249.296 318.018 250.615 317.971 252.245C317.965 252.471 317.953 252.703 317.947 252.94C317.889 255.227 317.801 258.053 317.679 261.244C317.673 261.438 317.667 261.627 317.655 261.82C317.491 265.717 317.234 270.254 316.79 277.439C315.966 290.712 314.527 279.264 313.083 283.92C309.073 281.648 304.676 279.269 299.976 276.826C299.128 276.385 298.273 275.941 297.409 275.496C288.008 270.669 277.509 265.609 266.547 260.599C266.114 260.399 265.676 260.2 265.243 260.007C240.133 248.58 212.725 237.466 190.521 230.049C186.236 228.618 182.143 227.326 178.296 226.19C170.193 223.806 163.19 222.137 157.799 221.416C152.187 220.663 148.311 220.932 146.744 222.487C146.685 221.389 146.625 220.338 146.563 219.333C146.539 219 146.516 218.671 146.492 218.348C146.529 218.26 146.575 218.175 146.621 218.09C146.627 218.077 146.632 218.065 146.639 218.052C146.65 218.024 146.664 217.997 146.68 217.972C146.697 217.938 146.716 217.906 146.738 217.875C146.757 217.837 146.781 217.8 146.808 217.767C146.861 217.692 146.919 217.611 146.984 217.536C147.031 217.479 147.082 217.425 147.136 217.374C147.154 217.348 147.175 217.325 147.2 217.304C147.223 217.283 147.247 217.256 147.276 217.229C147.288 217.212 147.304 217.197 147.323 217.186C147.369 217.137 147.42 217.092 147.475 217.051C147.683 216.875 147.906 216.713 148.141 216.567C148.223 216.518 148.311 216.47 148.393 216.416C148.982 216.092 149.602 215.818 150.246 215.598C150.468 215.523 150.69 215.453 150.93 215.377C151.018 215.356 151.099 215.329 151.187 215.302C151.316 215.264 151.444 215.227 151.579 215.2C152.245 215.017 152.964 214.861 153.742 214.715C153.976 214.672 154.221 214.629 154.467 214.592C154.666 214.559 154.87 214.527 155.075 214.495C156.811 214.242 158.781 214.053 160.956 213.93C161.161 213.919 161.366 213.908 161.57 213.897C161.81 213.886 162.05 213.876 162.295 213.865C162.5 213.854 162.71 213.849 162.921 213.843C163.125 213.833 163.336 213.827 163.552 213.822C164.143 213.806 164.751 213.79 165.37 213.779C167.136 213.752 168.995 213.763 170.948 213.8C171.854 213.817 172.778 213.843 173.725 213.881C173.783 213.881 173.847 213.887 173.906 213.887C174.73 213.908 175.566 213.946 176.414 213.983C177.01 214.01 177.612 214.037 178.215 214.069C178.782 214.102 179.355 214.134 179.933 214.172C180.384 214.193 180.834 214.226 181.29 214.253C181.676 214.279 182.061 214.306 182.447 214.328C182.909 214.36 183.371 214.392 183.839 214.425C184.482 214.473 185.125 214.522 185.78 214.57C186.429 214.624 187.089 214.678 187.75 214.731C188.411 214.785 189.077 214.845 189.744 214.904C189.814 214.909 189.878 214.915 189.942 214.92C190.55 214.979 191.158 215.033 191.772 215.092C195.175 215.41 198.677 215.781 202.278 216.206C204.429 216.459 206.608 216.73 208.814 217.019C212.164 217.455 215.567 217.929 218.993 218.434C222.425 218.946 225.876 219.486 229.346 220.054C230.223 220.2 231.1 220.345 231.983 220.496C233.059 220.679 234.135 220.865 235.21 221.056C235.889 221.174 236.567 221.292 237.245 221.416C238.052 221.562 238.864 221.707 239.671 221.852C244.985 222.821 250.27 223.854 255.427 224.936C256.275 225.114 257.122 225.297 257.964 225.474C259.648 225.835 261.316 226.201 262.969 226.572C263.425 226.675 263.875 226.777 264.325 226.879C265.453 227.137 266.57 227.396 267.675 227.654V227.66C267.739 227.67 267.804 227.686 267.868 227.703C268.675 227.891 269.476 228.079 270.271 228.273C272.147 228.725 273.993 229.181 275.807 229.64C277.012 229.952 278.204 230.259 279.379 230.571C281.139 231.045 282.864 231.519 284.542 231.992C284.957 232.111 285.372 232.229 285.781 232.342C287.009 232.697 288.213 233.051 289.394 233.402C290.329 233.682 291.242 233.967 292.142 234.253C293.042 234.538 293.925 234.823 294.79 235.108C295.351 235.291 295.901 235.48 296.445 235.663C297.24 235.932 298.012 236.201 298.772 236.476C299.005 236.556 299.233 236.642 299.461 236.723C299.888 236.874 300.303 237.03 300.713 237.186C300.987 237.283 301.256 237.385 301.525 237.493C301.788 237.59 302.057 237.692 302.314 237.794C302.577 237.891 302.835 237.993 303.092 238.101C303.308 238.182 303.519 238.268 303.723 238.354C304.138 238.521 304.554 238.688 304.957 238.86C305.156 238.946 305.355 239.027 305.553 239.113L306.009 239.307C306.074 239.339 306.138 239.366 306.202 239.393C306.699 239.608 307.179 239.823 307.646 240.039C308.085 240.243 308.512 240.448 308.921 240.647C309.406 240.884 309.868 241.115 310.312 241.352C310.4 241.395 310.488 241.443 310.575 241.486C310.873 241.642 311.16 241.804 311.446 241.96C312.008 242.278 312.54 242.59 313.037 242.902C313.528 243.214 313.984 243.521 314.41 243.828C314.41 243.833 314.41 243.833 314.416 243.833C314.621 243.984 314.82 244.134 315.007 244.28C315.311 244.522 315.591 244.753 315.849 244.99C315.935 245.063 316.017 245.14 316.094 245.222C316.128 245.248 316.16 245.276 316.188 245.308C316.311 245.432 316.433 245.555 316.55 245.679C316.691 245.83 316.819 245.98 316.942 246.131C317 246.207 317.065 246.282 317.117 246.357C317.187 246.449 317.258 246.546 317.316 246.637C317.369 246.712 317.415 246.793 317.462 246.869C317.586 247.063 317.692 247.266 317.778 247.477C317.842 247.62 317.895 247.768 317.936 247.918C317.98 248.061 318.013 248.207 318.035 248.354Z" fill="black"/>
</g>
<defs>
<clipPath id="clip0_17_212">
<rect width="460" height="308" fill="white"/>
</clipPath>
</defs>
</svg>
